<svg xmlns="http://www.w3.org/2000/svg" viewBox="0 0 22 25.031">
  <defs>
    <style>
      .cls-1 {
        fill: #fff;
      }
    </style>
  </defs>
  <path id="ferris" class="cls-1" d="M.733,25.031H21.267A.733.733,0,0,0,22,24.3a3.671,3.671,0,0,0-3.232-3.64l-2.81-4.765a8.135,8.135,0,0,0,1.26-1.226h1.115a.733.733,0,0,0,.733-.733V12.467a2.185,2.185,0,0,0-.237-.992,8.077,8.077,0,0,0-.1-4.258.732.732,0,0,0,.339-.618V5.133a2.2,2.2,0,0,0-3.145-1.986A8.07,8.07,0,0,0,13.156,1.76a2.2,2.2,0,0,0-4.311,0A8.07,8.07,0,0,0,6.078,3.147,2.2,2.2,0,0,0,2.933,5.133V6.6a.732.732,0,0,0,.339.618,8.077,8.077,0,0,0-.1,4.258,2.185,2.185,0,0,0-.237.992v1.467a.733.733,0,0,0,.733.733H4.782a8.135,8.135,0,0,0,1.26,1.226l-2.81,4.765A3.671,3.671,0,0,0,0,24.3.733.733,0,0,0,.733,25.031ZM12.013,22.1l.733,1.467H9.253L9.987,22.1Zm8.394,1.467H14.387L13.653,22.1h4.683A2.2,2.2,0,0,1,20.408,23.564Zm-7.462-7.724a2.212,2.212,0,0,0-1.212-1.048V11.607a2.208,2.208,0,0,0,.965-.678l2,1.145a2.193,2.193,0,0,0-.036.392v1.467a.734.734,0,0,0,.517.7A6.58,6.58,0,0,1,12.945,15.841ZM6.816,14.634a.734.734,0,0,0,.517-.7V12.467a2.193,2.193,0,0,0-.036-.392l2-1.145a2.208,2.208,0,0,0,.965.678v3.185a2.212,2.212,0,0,0-1.212,1.048A6.58,6.58,0,0,1,6.816,14.634Zm-2.362-4.26A6.636,6.636,0,0,1,4.4,9.533a6.543,6.543,0,0,1,.377-2.2H6.405L8.934,8.778a2.188,2.188,0,0,0-.133.749L6.569,10.8a2.193,2.193,0,0,0-2.114-.427ZM12.467,4.4a.733.733,0,0,0,.733-.733V3.311a6.6,6.6,0,0,1,1.677.884,2.188,2.188,0,0,0-.21.938V6.175L12.11,7.635a2.194,2.194,0,0,0-.377-.176V4.4Zm4.756,2.933a6.543,6.543,0,0,1,.377,2.2,6.636,6.636,0,0,1-.054.841,2.193,2.193,0,0,0-2.114.427L13.2,9.527a2.192,2.192,0,0,0-.133-.749l2.528-1.445ZM11,10.267a.733.733,0,1,1,.733-.733A.734.734,0,0,1,11,10.267ZM9.533,4.4h.733V7.459a2.187,2.187,0,0,0-.377.176L7.333,6.175V5.133a2.188,2.188,0,0,0-.21-.938A6.6,6.6,0,0,1,8.8,3.311v.355A.733.733,0,0,0,9.533,4.4Zm.733,12.467a.733.733,0,1,1,1.467,0V17.6H10.267ZM17.6,13.2H16.133v-.733a.733.733,0,1,1,1.467,0Zm0-8.067v.733H16.133V5.133a.733.733,0,1,1,1.467,0ZM11,1.467a.734.734,0,0,1,.733.733v.733H10.267V2.2A.734.734,0,0,1,11,1.467ZM4.4,5.133a.733.733,0,0,1,1.467,0v.733H4.4Zm0,7.333a.733.733,0,1,1,1.467,0V13.2H4.4Zm4.4,4.828v1.039a.733.733,0,0,0,.733.733h2.933a.733.733,0,0,0,.733-.733V17.295a8.033,8.033,0,0,0,1.524-.607l2.325,3.943H4.95l2.325-3.943A8.033,8.033,0,0,0,8.8,17.295ZM3.664,22.1H8.347l-.733,1.467H1.592A2.2,2.2,0,0,1,3.664,22.1Zm0,0" transform="translate(0 0)"/>
</svg>
