<svg xmlns="http://www.w3.org/2000/svg" viewBox="0 0 21.833 21.557">
  <defs>
    <style>
      .cls-1 {
        fill: #fff;
        stroke: #fff;
        stroke-width: 0.5px;
      }
    </style>
  </defs>
  <g id="mountains" transform="translate(0.25 -0.25)">
    <path id="Path_26" data-name="Path 26" class="cls-1" d="M189.167,446.582a.413.413,0,0,1-.081-.008.423.423,0,0,1-.078-.024.413.413,0,0,1-.072-.038.4.4,0,0,1-.063-.052.391.391,0,0,1-.052-.063.429.429,0,0,1-.062-.15.4.4,0,0,1-.008-.081.419.419,0,0,1,.008-.082.443.443,0,0,1,.024-.078.43.43,0,0,1,.038-.072.4.4,0,0,1,.052-.063.429.429,0,0,1,.063-.052.417.417,0,0,1,.526.052.4.4,0,0,1,.052.063.4.4,0,0,1,.038.072.443.443,0,0,1,.024.078.419.419,0,0,1,0,.163.417.417,0,0,1-.024.078.381.381,0,0,1-.038.072.394.394,0,0,1-.052.063A.42.42,0,0,1,189.167,446.582Zm0,0" transform="translate(-180.885 -426.697)"/>
    <path id="Path_27" data-name="Path 27" class="cls-1" d="M245.034,5.049h-10.6a.417.417,0,0,1-.417-.417A2.539,2.539,0,0,1,236.626,2.1a3.336,3.336,0,0,1,5.36-.454,2.8,2.8,0,0,1,3.462,3.036A.417.417,0,0,1,245.034,5.049ZM234.9,4.216h9.727a1.974,1.974,0,0,0-2.646-1.7.417.417,0,0,1-.481-.146,2.5,2.5,0,0,0-4.267.352.417.417,0,0,1-.432.226,1.7,1.7,0,0,0-1.9,1.269Zm0,0" transform="translate(-224.265)"/>
    <path id="Path_28" data-name="Path 28" class="cls-1" d="M21.174,111.26h0a5.013,5.013,0,0,0-1.97-2.851.854.854,0,0,0,.462-1.386l-1.3-1.525a.854.854,0,0,0,.44-1.388l-1.081-1.248a.853.853,0,0,0,.525-1.325l-2.39-3.418a.417.417,0,0,0-.683,0l-2.39,3.418a.854.854,0,0,0,.525,1.325l-.427.493L9.313,96.613a.417.417,0,0,0-.737,0L1.8,109.4a.437.437,0,0,0-.022.05,4.507,4.507,0,0,0-1.386,1.744v0A4.476,4.476,0,0,0,0,113.036a.417.417,0,0,0,.417.417H20.887a.417.417,0,0,0,.414-.371,5.023,5.023,0,0,0-.127-1.822Zm-.978-.312H16.77v-2.519h.47l.042.012A4.18,4.18,0,0,1,20.2,110.947ZM15.1,108.429h.834v2.519H15.1Zm-.514-6.139a.417.417,0,0,0-.379-.243h-.722a.017.017,0,0,1-.018-.011.016.016,0,0,1,0-.021l2.049-2.93,2.049,2.93a.016.016,0,0,1,0,.021.017.017,0,0,1-.018.011H15.661a.417.417,0,0,0,0,.833h.979l1.539,1.775a.016.016,0,0,1,0,.021.016.016,0,0,1-.019.012h-.676a.417.417,0,0,0-.317.687l1.862,2.188a.016.016,0,0,1,0,.021.016.016,0,0,1-.018.012H12.023a.016.016,0,0,1-.018-.012.015.015,0,0,1,0-.021l1.738-2.041h1.911a.417.417,0,1,0,0-.833h-2.78c-.008,0-.013,0-.019-.012a.016.016,0,0,1,0-.021l1.663-1.919A.417.417,0,0,0,14.589,102.289ZM8.944,97.7l2.748,5.22a1.559,1.559,0,0,1-2.189-.415.82.82,0,0,0-.433-.327.808.808,0,0,0-.918.327,1.558,1.558,0,0,1-2.011.522ZM5.75,103.765A2.391,2.391,0,0,0,8.827,103a2.394,2.394,0,0,0,3.27.66l.209.368-.075.087a.854.854,0,0,0,.44,1.388l-.31.365a6.056,6.056,0,0,0-7.492,2.678c-.119-.009-.238-.014-.356-.014a4.5,4.5,0,0,0-1.425.231ZM20.5,112.619H.856a3.633,3.633,0,0,1,.2-.839H4.292a.417.417,0,1,0,0-.833H1.484a3.685,3.685,0,0,1,3.561-1.55.417.417,0,0,0,.432-.226,5.228,5.228,0,0,1,6.308-2.632l-.411.483a.853.853,0,0,0,.65,1.406H14.27v2.519H9.693a.417.417,0,1,0,0,.833H20.435a4.217,4.217,0,0,1,.065.739C20.5,112.553,20.5,112.586,20.5,112.619Zm0,0" transform="translate(0 -91.895)"/>
    <path id="Path_29" data-name="Path 29" class="cls-1" d="M39.734,39.278a2.245,2.245,0,1,1,2.245-2.245A2.248,2.248,0,0,1,39.734,39.278Zm0-3.656a1.411,1.411,0,1,0,1.412,1.411A1.413,1.413,0,0,0,39.734,35.622Zm0,0" transform="translate(-35.926 -32.86)"/>
    <path id="Path_30" data-name="Path 30" class="cls-1" d="M81.8,1.81a.417.417,0,0,1-.417-.417V.917a.417.417,0,0,1,.833,0v.477A.417.417,0,0,1,81.8,1.81Zm0,0" transform="translate(-77.992)"/>
    <path id="Path_31" data-name="Path 31" class="cls-1" d="M81.8,146.674a.417.417,0,0,1-.417-.417v-.477a.417.417,0,0,1,.833,0v.477A.417.417,0,0,1,81.8,146.674Zm0,0" transform="translate(-77.992 -138.827)"/>
    <path id="Path_32" data-name="Path 32" class="cls-1" d="M149.019,79.49h-.477a.417.417,0,1,1,0-.833h.477a.417.417,0,1,1,0,.833Zm0,0" transform="translate(-141.953 -74.9)"/>
    <path id="Path_33" data-name="Path 33" class="cls-1" d="M4.078,79.49H3.6a.417.417,0,1,1,0-.833h.477a.417.417,0,1,1,0,.833Zm0,0" transform="translate(-3.051 -74.9)"/>
    <path id="Path_34" data-name="Path 34" class="cls-1" d="M135.229,17.305a.417.417,0,0,1-.295-.711l.382-.382a.417.417,0,1,1,.589.589l-.382.382A.416.416,0,0,1,135.229,17.305Zm0,0" transform="translate(-129.195 -14.94)"/>
    <path id="Path_35" data-name="Path 35" class="cls-1" d="M19.2,133.272a.417.417,0,0,1-.294-.711l.382-.382a.417.417,0,1,1,.589.589l-.382.382A.416.416,0,0,1,19.2,133.272Zm0,0" transform="translate(-18.001 -126.075)"/>
    <path id="Path_36" data-name="Path 36" class="cls-1" d="M135.609,133.272a.416.416,0,0,1-.295-.122l-.382-.382a.417.417,0,1,1,.589-.589l.382.382a.417.417,0,0,1-.295.711Zm0,0" transform="translate(-129.193 -126.075)"/>
    <path id="Path_37" data-name="Path 37" class="cls-1" d="M19.582,17.306a.415.415,0,0,1-.294-.122l-.382-.382a.417.417,0,0,1,.589-.589l.382.382a.417.417,0,0,1-.295.711Zm0,0" transform="translate(-18.001 -14.941)"/>
  </g>
</svg>
