<svg xmlns="http://www.w3.org/2000/svg" viewBox="0 0 27.863 20.965">
  <defs>
    <style>
      .cls-1 {
        fill: #fff;
      }
    </style>
  </defs>
  <g id="mountains_1_" data-name="mountains (1)" transform="translate(0 -63.372)">
    <g id="Group_39" data-name="Group 39" transform="translate(11.608 63.372)">
      <g id="Group_38" data-name="Group 38">
        <path id="Path_67" data-name="Path 67" class="cls-1" d="M224.115,73.175l-4.985-9.436a.68.68,0,0,0-.6-.363h0a.68.68,0,0,0-.6.36l-4.567,8.525a.407.407,0,0,0,.035.44l1.118,1.466a.681.681,0,0,0,1.05.041l1.768-1.978,3.436,4.056a.681.681,0,0,0,.514.241h.006a.681.681,0,0,0,.512-.232l2.036-2.322a.409.409,0,0,0,.032-.042l.226-.338A.407.407,0,0,0,224.115,73.175Zm-.911.28-1.917,2.185-3.435-4.055a.681.681,0,0,0-.511-.241h-.009a.681.681,0,0,0-.508.227l-1.762,1.972-.861-1.129,4.325-8.073,4.754,9Z" transform="translate(-213.311 -63.376)"/>
      </g>
    </g>
    <g id="Group_41" data-name="Group 41" transform="translate(0 63.372)">
      <g id="Group_40" data-name="Group 40">
        <path id="Path_68" data-name="Path 68" class="cls-1" d="M27.783,83.338l-3.2-6.057a.408.408,0,0,0-.721.381l3.1,5.861H16.1c-.013-.063-4.729-9.013-4.729-9.013l.7-1.309.734.962a.681.681,0,0,0,1.05.041l1.768-1.978,3.436,4.056a.681.681,0,0,0,.514.241h.006a.681.681,0,0,0,.512-.232l0,0,1.873-2.2.761,1.441a.408.408,0,1,0,.721-.381L17.427,63.735a.68.68,0,0,0-.6-.363h0a.68.68,0,0,0-.6.36l-4.279,7.987-.288.538h0l-.741,1.383-2.2-4.169a.681.681,0,0,0-.6-.363H8.065l-.019,0-.028,0-.024,0-.02,0a.68.68,0,0,0-.464.346L6.018,72.252,3.51,76.935v0l-3.427,6.4a.681.681,0,0,0,.6,1h26.5a.681.681,0,0,0,.6-1ZM12.622,72.181l4.2-7.842,4.738,8.97-1.979,2.327L16.15,71.582a.681.681,0,0,0-.511-.241H15.63a.681.681,0,0,0-.508.227L13.36,73.54,12.5,72.411ZM.905,83.522l3.086-5.76,1.19,1a.678.678,0,0,0,.946-.069L7.492,77.16l.879.872a.408.408,0,0,0,.574-.579l-.979-.971a.681.681,0,0,0-.988.03L5.605,78.05,4.385,77.028,8.11,70.074l4.807,9.1-1.161,1.07L10.7,79.19a.408.408,0,1,0-.574.579l1.152,1.143a.68.68,0,0,0,.942.017l1.1-1.01,1.9,3.6Z" transform="translate(0 -63.372)"/>
      </g>
    </g>
  </g>
</svg>
