<svg xmlns="http://www.w3.org/2000/svg" viewBox="0 0 24.114 21.085">
  <defs>
    <style>
      .cls-1 {
        fill: #fff;
        stroke: #fff;
        stroke-width: 0.25px;
      }
    </style>
  </defs>
  <g id="shop" transform="translate(0.125 0.125)">
    <g id="Group_9" data-name="Group 9" transform="translate(0 0)">
      <path id="Path_17" data-name="Path 17" class="cls-1" d="M253.052,263.75h-3.243a1.611,1.611,0,0,0-1.609,1.609v2.487a1.611,1.611,0,0,0,1.609,1.609h3.243a1.611,1.611,0,0,0,1.609-1.609v-2.487A1.611,1.611,0,0,0,253.052,263.75Zm.439,4.1a.44.44,0,0,1-.439.439h-3.243a.44.44,0,0,1-.439-.439v-2.487a.44.44,0,0,1,.439-.439h3.243a.44.44,0,0,1,.439.439Z" transform="translate(-236.098 -252.403)"/>
      <path id="Path_18" data-name="Path 18" class="cls-1" d="M23.864,37.877a.543.543,0,0,0-.078-.288l-3.55-6.241a.588.588,0,0,0-.507-.3H4.13a.578.578,0,0,0-.507.3L.078,37.589A.592.592,0,0,0,0,37.877a3.423,3.423,0,0,0,2.048,3.13V51.3a.587.587,0,0,0,.585.585H21.226a.587.587,0,0,0,.585-.585V41.08a.257.257,0,0,0,0-.063A3.432,3.432,0,0,0,23.864,37.877ZM4.471,32.225H19.387l2.774,4.881H1.7Zm12.512,6.046a2.249,2.249,0,0,1-4.427,0Zm-5.671,0a2.252,2.252,0,0,1-4.432,0Zm-10.1,0H5.642a2.252,2.252,0,0,1-4.432,0ZM9.83,50.715H6.466V44.4a.833.833,0,0,1,.834-.834H9a.833.833,0,0,1,.834.834v6.315Zm10.81,0H11V44.4a2.007,2.007,0,0,0-2-2h-1.7a2.007,2.007,0,0,0-2,2V50.72H3.218V41.295c.068,0,.137,0,.2,0a3.419,3.419,0,0,0,2.838-1.512,3.42,3.42,0,0,0,5.676,0,3.411,3.411,0,0,0,5.666,0A3.419,3.419,0,0,0,20.441,41.3c.068,0,.132,0,.2,0v9.421Zm-.2-10.586a2.248,2.248,0,0,1-2.214-1.853h4.432A2.261,2.261,0,0,1,20.441,40.129Z" transform="translate(0 -31.05)"/>
    </g>
  </g>
</svg>
