<svg id="plantation" xmlns="http://www.w3.org/2000/svg" viewBox="0 0 22.031 22.031">
  <defs>
    <style>
      .cls-1 {
        fill: #fff;
      }
    </style>
  </defs>
  <path id="Path_69" data-name="Path 69" class="cls-1" d="M347.45,401.176a.433.433,0,0,1-.084-.009.445.445,0,0,1-.081-.025.462.462,0,0,1-.074-.04.428.428,0,0,1-.191-.358.436.436,0,0,1,.009-.084.456.456,0,0,1,.025-.081.431.431,0,0,1,.04-.074.4.4,0,0,1,.053-.065.469.469,0,0,1,.065-.054.462.462,0,0,1,.074-.04.435.435,0,0,1,.08-.024.423.423,0,0,1,.168,0,.429.429,0,0,1,.081.024.434.434,0,0,1,.074.04.444.444,0,0,1,.066.054.419.419,0,0,1,.054.065.441.441,0,0,1,.04.074.456.456,0,0,1,.025.081.432.432,0,0,1,0,.168.432.432,0,0,1-.025.081.427.427,0,0,1-.04.074.419.419,0,0,1-.054.065.41.41,0,0,1-.066.053.434.434,0,0,1-.074.04.446.446,0,0,1-.081.025A.426.426,0,0,1,347.45,401.176Zm0,0" transform="translate(-332.087 -383.09)"/>
  <path id="Path_70" data-name="Path 70" class="cls-1" d="M21.6,214.92H18.738v-.854c.115.011.246.018.387.018a2.389,2.389,0,0,0,1.7-.583,3.033,3.033,0,0,0,.5-2.542A.431.431,0,0,0,21,210.63a3.348,3.348,0,0,0-2.261.272v-.642c.115.011.246.018.387.018a2.389,2.389,0,0,0,1.7-.583,3.033,3.033,0,0,0,.5-2.542.43.43,0,0,0-.329-.329,3.032,3.032,0,0,0-2.542.5,1.66,1.66,0,0,0-.149.171,1.66,1.66,0,0,0-.149-.171,3.032,3.032,0,0,0-2.542-.5.43.43,0,0,0-.329.329,3.032,3.032,0,0,0,.5,2.542,2.388,2.388,0,0,0,1.7.583c.141,0,.272-.007.387-.018v.642a3.348,3.348,0,0,0-2.261-.272.43.43,0,0,0-.329.329,3.033,3.033,0,0,0,.5,2.542,1.675,1.675,0,0,0,.232.193,6.1,6.1,0,0,0-2.083-.363h-.173a3.345,3.345,0,0,0,.274-2.263.431.431,0,0,0-.329-.329,3.348,3.348,0,0,0-2.261.273v-.642c.115.01.246.018.387.018a2.388,2.388,0,0,0,1.7-.583,3.032,3.032,0,0,0,.5-2.542.43.43,0,0,0-.329-.329,3.032,3.032,0,0,0-2.542.5,1.661,1.661,0,0,0-.149.172,1.661,1.661,0,0,0-.149-.171,3.032,3.032,0,0,0-2.542-.5.43.43,0,0,0-.329.329,3.032,3.032,0,0,0,.5,2.542,2.389,2.389,0,0,0,1.7.583c.141,0,.272-.008.387-.018v.642a3.347,3.347,0,0,0-2.261-.273.431.431,0,0,0-.329.329,3.345,3.345,0,0,0,.274,2.263H6.47a3.345,3.345,0,0,0,.274-2.263.43.43,0,0,0-.329-.329,3.348,3.348,0,0,0-2.261.273v-.642c.115.01.246.018.387.018a2.388,2.388,0,0,0,1.7-.583,3.032,3.032,0,0,0,.5-2.542.43.43,0,0,0-.329-.329,3.033,3.033,0,0,0-2.542.5,1.656,1.656,0,0,0-.149.171,1.677,1.677,0,0,0-.149-.171,3.032,3.032,0,0,0-2.542-.5.43.43,0,0,0-.329.329,3.033,3.033,0,0,0,.5,2.542,2.388,2.388,0,0,0,1.7.583c.141,0,.272-.007.387-.018v.642a3.348,3.348,0,0,0-2.261-.272.43.43,0,0,0-.329.329,3.345,3.345,0,0,0,.274,2.263H.43a.43.43,0,0,0-.43.43v5.684a.43.43,0,0,0,.43.43H21.6a.43.43,0,0,0,.43-.43v-4.1A.43.43,0,0,0,21.6,214.92Zm-1.071-3.492a1.961,1.961,0,0,1-.309,1.465,1.944,1.944,0,0,1-1.465.309c-.008-.08-.014-.168-.017-.261q0-.1,0-.2a1.509,1.509,0,0,1,.325-1A1.945,1.945,0,0,1,20.53,211.428Zm0-3.8a1.961,1.961,0,0,1-.309,1.465,1.944,1.944,0,0,1-1.465.309c-.008-.079-.014-.168-.017-.261,0-.065,0-.132,0-.2a1.508,1.508,0,0,1,.325-1A1.944,1.944,0,0,1,20.53,207.623Zm-4.136,1.465a1.943,1.943,0,0,1-.309-1.465,1.962,1.962,0,0,1,1.465.309,1.481,1.481,0,0,1,.326.98c0,.083,0,.164,0,.241s-.009.169-.017.244A1.944,1.944,0,0,1,16.394,209.088Zm-.309,2.34a1.945,1.945,0,0,1,1.465.309,1.481,1.481,0,0,1,.326.98c0,.084,0,.164,0,.241s-.009.168-.017.243a1.962,1.962,0,0,1-1.465-.309A1.944,1.944,0,0,1,16.085,211.428Zm1.406,2.656c.141,0,.272-.007.387-.018v.706q-.148-.125-.3-.241a6.143,6.143,0,0,0-.862-.535A3.287,3.287,0,0,0,17.49,214.084Zm-13.336.986v-.878h6.431v.878Zm9.084-3.533A1.944,1.944,0,0,1,12.929,213a1.944,1.944,0,0,1-1.465.309c-.008-.079-.014-.168-.017-.261,0-.065,0-.132,0-.2a1.509,1.509,0,0,1,.326-1A1.944,1.944,0,0,1,13.238,211.538Zm0-3.805a1.961,1.961,0,0,1-.309,1.465,1.944,1.944,0,0,1-1.465.309c-.008-.08-.014-.168-.017-.261,0-.065,0-.132,0-.2a1.509,1.509,0,0,1,.326-1A1.945,1.945,0,0,1,13.238,207.732ZM9.1,209.2a1.944,1.944,0,0,1-.309-1.465,1.963,1.963,0,0,1,1.465.309,1.482,1.482,0,0,1,.326.981c0,.083,0,.163,0,.24s-.009.169-.017.244A1.945,1.945,0,0,1,9.1,209.2Zm-.309,2.34a1.945,1.945,0,0,1,1.465.309,1.483,1.483,0,0,1,.326.981c0,.083,0,.163,0,.24s-.009.169-.017.244A1.961,1.961,0,0,1,9.1,213,1.944,1.944,0,0,1,8.793,211.538Zm-2.847,0A1.961,1.961,0,0,1,5.637,213a1.944,1.944,0,0,1-1.465.309c-.008-.079-.014-.167-.017-.26,0-.065,0-.133,0-.2a1.509,1.509,0,0,1,.326-1A1.944,1.944,0,0,1,5.946,211.538Zm0-3.805a1.961,1.961,0,0,1-.309,1.465,1.944,1.944,0,0,1-1.465.309c-.008-.079-.014-.168-.017-.261,0-.065,0-.133,0-.2a1.509,1.509,0,0,1,.326-1A1.945,1.945,0,0,1,5.946,207.732ZM1.81,209.2a1.944,1.944,0,0,1-.309-1.465,1.963,1.963,0,0,1,1.465.309,1.482,1.482,0,0,1,.326.98c0,.083,0,.164,0,.241s-.009.169-.017.244A1.962,1.962,0,0,1,1.81,209.2Zm-.309,2.34a1.945,1.945,0,0,1,1.465.309,1.482,1.482,0,0,1,.326.98c0,.083,0,.164,0,.241s-.009.169-.017.244A1.944,1.944,0,0,1,1.81,213,1.943,1.943,0,0,1,1.5,211.538Zm1.792,2.655v.878H.861v-.878ZM.861,219.016v-3.085H13.647a.43.43,0,1,0,0-.861h-2.2v-.878h2.489a5.235,5.235,0,0,1,4.788,3.087h-9.3a.43.43,0,0,0,0,.861h9.6a5.221,5.221,0,0,1,.146.875Zm20.31,0H20.034a6.092,6.092,0,0,0-.276-1.437h0a6.084,6.084,0,0,0-.927-1.8h2.339Zm0,0" transform="translate(0 -197.845)"/>
  <path id="Path_71" data-name="Path 71" class="cls-1" d="M9.573,2.3a2.93,2.93,0,0,0-.707.086,3.494,3.494,0,0,0-3.961-.934A2.582,2.582,0,1,0,.769,4.42,2.636,2.636,0,0,0,.535,5.511a.43.43,0,0,0,.43.43H12.057a.43.43,0,0,0,.428-.383,2.986,2.986,0,0,0,.018-.327A2.933,2.933,0,0,0,9.573,2.3Zm-8.713.28a1.722,1.722,0,0,1,3.294-.7,3.482,3.482,0,0,0-.891.982H3.184a2.643,2.643,0,0,0-1.921.826A1.728,1.728,0,0,1,.861,2.582Zm.587,2.5a1.788,1.788,0,0,1,2-1.34.43.43,0,0,0,.447-.234,2.624,2.624,0,0,1,4.474-.37.43.43,0,0,0,.5.151,2.071,2.071,0,0,1,2.776,1.792Zm0,0"/>
</svg>
