<svg xmlns="http://www.w3.org/2000/svg" viewBox="0 0 21.981 21.852">
  <defs>
    <style>
      .cls-1 {
        fill: #fff;
        stroke: #fff;
        stroke-width: 0.25px;
      }
    </style>
  </defs>
  <g id="fork" transform="translate(0.164 -0.334)">
    <path id="Path_42" data-name="Path 42" class="cls-1" d="M69.909,14.888l1.274-.081h.007A3,3,0,0,0,73.426,13.5l1.007-1.478a5.963,5.963,0,0,0,.956-4.375A1.345,1.345,0,0,0,74.126,6.53,5.961,5.961,0,0,0,69.9,8L68.551,9.181a3,3,0,0,0-1.028,2.376s0,0,0,.007l.073,1.274a1.794,1.794,0,0,1-.5,1.344L56.58,24.987a1.528,1.528,0,0,0-.409,1.134,1.757,1.757,0,0,0,1.781,1.708q.07,0,.14-.006a1.529,1.529,0,0,0,1.079-.544l9.464-11.735A1.794,1.794,0,0,1,69.909,14.888Zm-1.78.248L58.665,26.87a.885.885,0,0,1-.626.306A1.11,1.11,0,0,1,56.82,26.1a.883.883,0,0,1,.227-.656l10.517-10.8a2.446,2.446,0,0,0,.681-1.833l-.073-1.271a2.353,2.353,0,0,1,.806-1.86l1.346-1.177A5.318,5.318,0,0,1,74.1,7.179a.7.7,0,0,1,.652.578,5.316,5.316,0,0,1-.852,3.9l-1.007,1.478a2.353,2.353,0,0,1-1.75,1.023l-1.271.08A2.447,2.447,0,0,0,68.128,15.136Zm0,0" transform="translate(-53.79 -5.769)"/>
    <path id="Path_43" data-name="Path 43" class="cls-1" d="M298.5,293.408l-7.052-6.423a.325.325,0,1,0-.438.481l7.051,6.422a.885.885,0,0,1,.268.643,1.11,1.11,0,0,1-1.152,1.152.884.884,0,0,1-.642-.266l-6.284-6.9a.325.325,0,1,0-.481.438l6.286,6.9a1.529,1.529,0,0,0,1.108.477h.034a1.76,1.76,0,0,0,1.78-1.815A1.53,1.53,0,0,0,298.5,293.408Zm0,0" transform="translate(-277.42 -274.272)"/>
    <path id="Path_44" data-name="Path 44" class="cls-1" d="M3.923,9.058a3.01,3.01,0,0,0,1.968.8H5.9l1.276,0a1.793,1.793,0,0,1,1.312.579l.562.617a.325.325,0,1,0,.481-.438L8.966,10a2.446,2.446,0,0,0-1.789-.79L5.9,9.2a2.362,2.362,0,0,1-1.525-.61L.679,4.2a.112.112,0,0,1,.165-.152L4.211,7.411a.855.855,0,0,0,1.207,0l.4-.4h0l.7-.7h0l.4-.4a.855.855,0,0,0,0-1.207L3.545,1.342A.112.112,0,0,1,3.7,1.177l4.4,3.7A2.361,2.361,0,0,1,8.705,6.4l0,1.273A2.448,2.448,0,0,0,9.5,9.465l.6.549a.325.325,0,1,0,.438-.481l-.6-.548a1.794,1.794,0,0,1-.58-1.312l0-1.276s0,0,0-.007a3.01,3.01,0,0,0-.8-1.968.325.325,0,0,0-.03-.029L4.115.68A.762.762,0,0,0,3.086,1.8L6.453,5.169a.2.2,0,0,1,0,.288l-.166.166L2.534,1.87a.325.325,0,1,0-.46.46L5.828,6.083l-.243.243L1.831,2.573a.325.325,0,1,0-.46.46L5.125,6.786l-.166.166a.2.2,0,0,1-.288,0L1.3,3.584A.762.762,0,0,0,.181,4.614L3.894,9.028A.3.3,0,0,0,3.923,9.058Zm0,0" transform="translate(0 0)"/>
  </g>
</svg>
