<svg xmlns="http://www.w3.org/2000/svg" viewBox="0 0 25.895 25.931">
  <defs>
    <style>
      .cls-1 {
        fill: #fff;
      }
    </style>
  </defs>
  <g id="canoe" transform="translate(-0.355)">
    <g id="Group_16" data-name="Group 16" transform="translate(0.355)">
      <path id="Path_19" data-name="Path 19" class="cls-1" d="M25.163,21.655a4.716,4.716,0,0,0-.859.534,2.867,2.867,0,0,1-3.619,0,4.437,4.437,0,0,0-5.475-.045,11.848,11.848,0,0,0,.528-1.548q.177-.115.345-.245a2.942,2.942,0,0,1,3.669,0,4.371,4.371,0,0,0,5.485,0,3.194,3.194,0,0,1,.582-.362.758.758,0,0,0,.292-1.12,6.863,6.863,0,0,0-4.982-8.009.759.759,0,0,0-.949.734v1.3a.76.76,0,0,1-.759.759H16.667l.55-1.521A2.274,2.274,0,0,0,18.647,8.2L19.4,6.119A.759.759,0,0,0,17.979,5.6l-.725,1.992c-.052,0-.1-.006-.158-.006H13.532l-2-1.335a2.282,2.282,0,0,0-.343-.187A3.034,3.034,0,0,0,11.027,0,3.076,3.076,0,0,0,7.942,3.034,3.056,3.056,0,0,0,9.979,5.886,2.3,2.3,0,0,0,7.942,8.145v5.51H7.183a.76.76,0,0,1-.759-.759v-1.3a.759.759,0,0,0-.949-.734A6.864,6.864,0,0,0,.488,18.842.755.755,0,0,0,.8,19.96a3.177,3.177,0,0,1,.643.391,4.371,4.371,0,0,0,5.485,0,2.942,2.942,0,0,1,3.669,0q.163.127.334.238l-.367,1.02a4.452,4.452,0,0,0-4.57.58,2.867,2.867,0,0,1-3.619,0,4.693,4.693,0,0,0-.95-.577A.759.759,0,1,0,.8,22.995a3.177,3.177,0,0,1,.643.391,4.371,4.371,0,0,0,5.485,0,2.906,2.906,0,0,1,3.121-.344l-.3.833a.759.759,0,0,0,.453.973l2.852,1.038a.759.759,0,0,0,.972-.453c.168-.462.315-.868.447-1.233a4.607,4.607,0,0,0,1.609-.813,2.942,2.942,0,0,1,3.669,0,4.371,4.371,0,0,0,5.485,0,3.2,3.2,0,0,1,.582-.362.759.759,0,0,0-.656-1.368ZM9.459,3.035a1.564,1.564,0,0,1,1.568-1.517,1.517,1.517,0,1,1,0,3.034A1.564,1.564,0,0,1,9.459,3.035Zm0,5.111h0a.8.8,0,0,1,1.23-.631l2.193,1.462A.758.758,0,0,0,13.3,9.1H17.1a.759.759,0,1,1,0,1.517h-5.31a.759.759,0,0,0,0,1.517h.759v1.517H9.459ZM15.6,12.138l-.548,1.517h-.992V12.138Zm-1.386,8.289c-.406,1.115-.687,1.928-1.355,3.772l-1.427-.52c.572-1.588,1.357-3.772,1.357-3.772h0a.759.759,0,0,1,1.426.519Zm-.693-2.535a2.281,2.281,0,0,0-2.039,1.227A4.437,4.437,0,0,0,6,19.155a2.867,2.867,0,0,1-3.619,0q-.155-.121-.318-.228A6.026,6.026,0,0,1,1.873,17.5a5.341,5.341,0,0,1,3.035-4.826V12.9a2.278,2.278,0,0,0,2.276,2.276h7.322Zm1.426.518,1.17-3.237h3.3A2.278,2.278,0,0,0,21.7,12.9v-.223A5.341,5.341,0,0,1,24.732,17.5a6.9,6.9,0,0,1-.193,1.484q-.12.082-.235.172a2.867,2.867,0,0,1-3.619,0,4.432,4.432,0,0,0-5.257-.2A2.278,2.278,0,0,0,14.948,18.41Z" transform="translate(-0.355)"/>
    </g>
  </g>
</svg>
