<svg xmlns="http://www.w3.org/2000/svg" viewBox="0 0 25.186 25.268">
  <defs>
    <style>
      .cls-1 {
        fill: #fff;
        stroke: #fff;
        stroke-width: 0.5px;
      }
    </style>
  </defs>
  <g id="sunset" transform="translate(0.074 0.334)">
    <path id="Path_20" data-name="Path 20" class="cls-1" d="M329.4,275.27a4.114,4.114,0,1,0,4.114-4.114A4.114,4.114,0,0,0,329.4,275.27Zm4.114-3.291a3.291,3.291,0,1,1-3.291,3.291A3.291,3.291,0,0,1,333.512,271.979Zm0,0" transform="translate(-315.233 -259.636)"/>
    <path id="Path_21" data-name="Path 21" class="cls-1" d="M370.9,561.637h4.7v.823h-4.7Zm0,0" transform="translate(-354.97 -537.775)"/>
    <path id="Path_22" data-name="Path 22" class="cls-1" d="M329.4,522.9h8.228v.823H329.4Zm0,0" transform="translate(-315.233 -500.686)"/>
    <path id="Path_23" data-name="Path 23" class="cls-1" d="M116.379,522.9h.823v.823h-.823Zm0,0" transform="translate(-111.264 -500.686)"/>
    <path id="Path_24" data-name="Path 24" class="cls-1" d="M58.285,542.27h.823v.823h-.823Zm0,0" transform="translate(-55.639 -519.231)"/>
    <path id="Path_25" data-name="Path 25" class="cls-1" d="M5.156,19.9A31.157,31.157,0,0,0,9.114,7.724l3.826,3.8a.411.411,0,0,0,.288.12.388.388,0,0,0,.067-.005.411.411,0,0,0,.3-.222,4.016,4.016,0,0,0-.754-4.642l-.336-.337H15.4A.412.412,0,0,0,15.79,5.9,4.017,4.017,0,0,0,11.975,3.15H11.44l2.054-2.066a.411.411,0,0,0-.108-.658,4.018,4.018,0,0,0-4.644.753l-.393.393a4.023,4.023,0,0,0-.357.411,3.953,3.953,0,0,0-.354-.411l-.393-.393A4.016,4.016,0,0,0,2.605.426a.411.411,0,0,0-.108.658L4.554,3.15h-.54A4.016,4.016,0,0,0,.2,5.9a.412.412,0,0,0,.391.542H3.48l-.336.337A4.016,4.016,0,0,0,2.39,11.42a.411.411,0,0,0,.3.222.39.39,0,0,0,.067.005.411.411,0,0,0,.29-.12L6.611,7.986a22.3,22.3,0,0,1-4.3,10.872,15.349,15.349,0,0,0-1.679-.342L.374,18.49l-.082.819.24.023c.411.059.82.142,1.227.236-.082.1-.165.208-.25.31l.631.528A23.161,23.161,0,0,0,7.521,7.081l.473-.471.355.353a30.079,30.079,0,0,1-5.217,14.6l.674.472c.323-.462.632-.941.931-1.429a14.591,14.591,0,0,1,4.978,3.9l.636-.521a15.366,15.366,0,0,0-2.732-2.595H24.861V20.57H6.4C6,20.327,5.581,20.106,5.156,19.9Zm7.921-9.4L8.73,6.181a3.173,3.173,0,0,1,3.141.786l.393.393A3.194,3.194,0,0,1,13.077,10.5Zm1.695-4.884H11.366a4.012,4.012,0,0,0-2.548-.3,3.19,3.19,0,0,1,2.6-1.341h.555A3.194,3.194,0,0,1,14.772,5.619ZM8.93,2.153l.393-.393A3.2,3.2,0,0,1,12.468.947L10.029,3.4A4.012,4.012,0,0,0,8.087,4.924a3.114,3.114,0,0,1,.845-2.771ZM6.664,1.761l.393.393a3.122,3.122,0,0,1,.473.623,3.914,3.914,0,0,0-.314,1.368A4.013,4.013,0,0,0,5.961,3.4L3.522.947a3.2,3.2,0,0,1,3.143.813ZM4.013,3.973h.555a3.191,3.191,0,0,1,2.6,1.341,4.014,4.014,0,0,0-2.547.3H1.217a3.2,3.2,0,0,1,2.8-1.646ZM2.912,10.5A3.194,3.194,0,0,1,3.726,7.36l.393-.393a3.144,3.144,0,0,1,2.231-.918,3.254,3.254,0,0,1,.912.131Zm0,0" transform="translate(0 0)"/>
  </g>
</svg>
