<svg xmlns="http://www.w3.org/2000/svg" viewBox="0 0 19.215 27.635">
  <defs>
    <style>
      .cls-1 {
        fill: #fff;
      }
    </style>
  </defs>
  <g id="temple" transform="translate(-78)">
    <g id="Group_33" data-name="Group 33" transform="translate(78)">
      <g id="Group_32" data-name="Group 32">
        <path id="Path_64" data-name="Path 64" class="cls-1" d="M96.675,23.965H95.237V22.517a.54.54,0,0,0-.272-.468,3.4,3.4,0,0,1-1.7-2.941V16.815a5.718,5.718,0,0,0-2.514-4.74.54.54,0,0,0-.3-.093H90.09v-.864h.162a.54.54,0,1,0,0-1.08H90.1L88.143.432a.54.54,0,0,0-1.058,0l-1.956,9.607h-.167a.54.54,0,0,0,0,1.08h.162v.864h-.353a.54.54,0,0,0-.3.093,5.724,5.724,0,0,0-1.992,2.351.54.54,0,0,0,.981.45,4.644,4.644,0,0,1,1.485-1.815h5.331a4.64,4.64,0,0,1,1.908,3.753v2.292a4.476,4.476,0,0,0,1.038,2.86H89.882V18.69a2.11,2.11,0,0,0-1.034-1.81l-.191-.113a1.027,1.027,0,0,1-.5-.88.54.54,0,0,0-1.08,0,1.027,1.027,0,0,1-.5.88l-.191.113a2.11,2.11,0,0,0-1.034,1.81v3.278H82a4.476,4.476,0,0,0,1.038-2.86.54.54,0,1,0-1.08,0,3.4,3.4,0,0,1-1.7,2.941.54.54,0,0,0-.272.468v1.448H78.54a.54.54,0,0,0-.54.54V27.1a.54.54,0,0,0,.54.54H91.512a.54.54,0,1,0,0-1.08H89.875V25.045h6.261v1.511h-.45a.54.54,0,0,0,0,1.08h.99a.54.54,0,0,0,.54-.54V24.5A.54.54,0,0,0,96.675,23.965ZM87.614,3.245l.5,2.476H87.11ZM86.89,6.8h1.448l.22,1.08H86.671Zm-.44,2.159h2.327l.22,1.08H86.231Zm2.56,3.023H86.2v-.864h2.807Zm-3.67,14.573H79.08V25.045h6.261Zm0-2.591H81.057v-.918h4.283ZM88.8,26.556H86.42V25.045H88.8Zm0-2.591H86.42v-.918H88.8Zm.007-2H86.427V18.69h0a1.026,1.026,0,0,1,.5-.88l.191-.113a2.089,2.089,0,0,0,.494-.405,2.087,2.087,0,0,0,.494.405l.191.113a1.026,1.026,0,0,1,.5.88Zm5.356,2H89.875v-.918h4.283Z" transform="translate(-78)"/>
      </g>
    </g>
    <g id="Group_35" data-name="Group 35" transform="translate(93.023 26.556)">
      <g id="Group_34" data-name="Group 34">
        <path id="Path_65" data-name="Path 65" class="cls-1" d="M357.251,492.158a.539.539,0,1,0,.158.382A.543.543,0,0,0,357.251,492.158Z" transform="translate(-356.33 -492)"/>
      </g>
    </g>
    <g id="Group_37" data-name="Group 37" transform="translate(81.954 16.276)">
      <g id="Group_36" data-name="Group 36">
        <path id="Path_66" data-name="Path 66" class="cls-1" d="M152.181,301.7a.538.538,0,1,0,.159.382A.541.541,0,0,0,152.181,301.7Z" transform="translate(-151.26 -301.54)"/>
      </g>
    </g>
  </g>
</svg>
