<svg xmlns="http://www.w3.org/2000/svg" viewBox="0 0 26 25.821">
  <defs>
    <style>
      .cls-1 {
        fill: #fff;
      }
    </style>
  </defs>
  <g id="ic_tent" transform="translate(0 -1.66)">
    <g id="Group_254" data-name="Group 254" transform="translate(18.38 26.621)">
      <g id="Group_253" data-name="Group 253">
        <rect id="Rectangle_165" data-name="Rectangle 165" class="cls-1" width="0.861" height="0.861"/>
      </g>
    </g>
    <g id="Group_256" data-name="Group 256" transform="translate(15.42 19.963)">
      <g id="Group_255" data-name="Group 255" transform="translate(0 0)">
        <rect id="Rectangle_166" data-name="Rectangle 166" class="cls-1" width="0.861" height="6.354" transform="translate(0 0.408) rotate(-28.3)"/>
      </g>
    </g>
    <g id="Group_258" data-name="Group 258" transform="translate(0 8.114)">
      <g id="Group_257" data-name="Group 257">
        <path id="Path_13678" data-name="Path 13678" class="cls-1" d="M5.165,127.529l.609-.609-2.456-2.456V123.1l1.848,1.848.609-.609-2.582-2.582,0,0a.419.419,0,0,0-.593-.016l-.013.013L0,124.339l.609.609L2.456,123.1v1.365L0,126.921l.609.609,1.848-1.848v1.365L0,129.5l.609.609,1.848-1.848v1.365L0,132.085l.609.609,1.848-1.848V141h.861v-10.15l1.848,1.848.609-.609-2.456-2.456v-1.365l1.848,1.848.609-.609-2.456-2.456v-1.365Z" transform="translate(0 -121.629)"/>
      </g>
    </g>
    <g id="Group_260" data-name="Group 260" transform="translate(4.178 5.962)">
      <g id="Group_259" data-name="Group 259">
        <path id="Path_13679" data-name="Path 13679" class="cls-1" d="M98.882,91.4l.609-.609-2.456-2.456V86.973l1.848,1.848.609-.609L96.909,85.63l0,0a.419.419,0,0,0-.593-.016l-.013.013-2.582,2.582.609.609,1.848-1.848v1.365l-2.456,2.456.609.609,1.848-1.848V90.92l-2.456,2.456.609.609,1.848-1.848v4.125l-.9-1.905a.43.43,0,0,0-.387-.247H89.289V90.846l1.848,1.848.609-.609-2.456-2.456V88.264l1.848,1.848.609-.609-2.456-2.456V85.682l1.848,1.848.609-.609-2.456-2.456V83.1l1.848,1.848.609-.609-2.582-2.582,0,0a.419.419,0,0,0-.593-.016l-.013.013-2.582,2.582.609.609L88.428,83.1v1.365l-2.456,2.456.609.609,1.848-1.848v1.365L85.972,89.5l.609.609,1.848-1.848v1.365l-2.456,2.456.609.609,1.848-1.848v3.265H82.4a.425.425,0,0,0-.317.145.372.372,0,0,0-.064.086l-4.3,8.177a.43.43,0,0,0,.381.63H91.01v-.861H86.965l-3.849-7.316h11.5l3.466,7.316H93.592v.861h5.164a.43.43,0,0,0,.387-.615l-2.109-4.455V92.137l1.848,1.848.609-.609L97.035,90.92V89.555Zm-16.91,10.885H78.812l3.161-6Zm4.021,0H82.833v-6Z" transform="translate(-77.669 -81.629)"/>
      </g>
    </g>
    <g id="Group_262" data-name="Group 262" transform="translate(5.039 1.66)">
      <g id="Group_261" data-name="Group 261" transform="translate(0 0)">
        <path id="Path_13680" data-name="Path 13680" class="cls-1" d="M96.892,1.66a.43.43,0,0,0-.3.735,2.508,2.508,0,0,1,.81,1.537,1.324,1.324,0,0,1-1.463,1.463h0a2.508,2.508,0,0,1-1.537-.81.43.43,0,0,0-.735.3A3.228,3.228,0,1,0,96.892,1.66Zm2.132,4.259a2.367,2.367,0,0,1-4.26,0,2.836,2.836,0,0,0,1.108.329,2.217,2.217,0,0,0,1.755-.627,2.4,2.4,0,0,0,.3-2.865A2.367,2.367,0,0,1,99.023,5.919Z" transform="translate(-93.664 -1.66)"/>
      </g>
    </g>
  </g>
</svg>
